<svg width="48" height="16" viewBox="0 0 48 16" fill="none" xmlns="http://www.w3.org/2000/svg">
<path d="M20.7995 15.7692H16.9112L19.3432 0.280756H23.2313L20.7995 15.7692Z" fill="#00579F"/>
<path d="M34.8951 0.659404C34.1282 0.346018 32.9117 0 31.4076 0C27.5678 0 24.8638 2.10895 24.8472 5.12412C24.8153 7.3487 26.7832 8.58429 28.255 9.32604C29.7593 10.084 30.2707 10.5787 30.2707 11.2543C30.2554 12.2919 29.0551 12.7702 27.9356 12.7702C26.3832 12.7702 25.5514 12.5236 24.2873 11.9464L23.7753 11.6989L23.2312 15.1757C24.1432 15.6036 25.8234 15.9834 27.5678 16C31.6477 16 34.3038 13.9237 34.3353 10.7105C34.3508 8.94739 33.3117 7.59639 31.0714 6.49242C29.7115 5.78374 28.8786 5.30589 28.8786 4.58079C28.8946 3.9216 29.583 3.24643 31.1182 3.24643C32.3823 3.21336 33.3111 3.52631 34.0146 3.83948L34.3663 4.00394L34.8951 0.659404Z" fill="#00579F"/>
<path d="M40.0638 10.2822C40.3841 9.39239 41.6162 5.94865 41.6162 5.94865C41.6001 5.98172 41.9358 5.04243 42.1278 4.46581L42.3996 5.80039C42.3996 5.80039 43.1359 9.5078 43.2958 10.2822C42.6881 10.2822 40.8318 10.2822 40.0638 10.2822ZM44.8635 0.280756H41.8559C40.9284 0.280756 40.2237 0.560636 39.8236 1.56584L34.0479 15.769H38.1279C38.1279 15.769 38.7995 13.8573 38.9439 13.4456C39.3915 13.4456 43.3604 13.4456 43.9362 13.4456C44.0478 13.9894 44.4002 15.769 44.4002 15.769H48.0004L44.8635 0.280756Z" fill="#00579F"/>
<path d="M13.6635 0.280756L9.85551 10.8424L9.43939 8.70036C8.73538 6.22875 6.52745 3.54339 4.06351 2.20816L7.55146 15.7528H11.6633L17.7751 0.280756H13.6635Z" fill="#00579F"/>
<path d="M6.31995 0.280756H0.0640009L0 0.593704C4.88003 1.879 8.11199 4.97717 9.43985 8.70101L8.07988 1.5827C7.85598 0.593485 7.16792 0.313387 6.31995 0.280756Z" fill="#F4A622"/>
</svg>
